<?xml version="1.0" encoding="UTF-8"?>
<svg version="1.1" xmlns="http://www.w3.org/2000/svg" width="512" height="512">
<path d="M0 0 C1.01790619 0.00215515 2.03581238 0.0043103 3.08456421 0.00653076 C17.69363523 0.05620146 32.02575853 0.30709809 46.375 3.3125 C47.34985352 3.51117676 48.32470703 3.70985352 49.32910156 3.91455078 C97.7109774 14.03517194 141.69928269 35.9516877 177.375 70.3125 C178.3640332 71.26068604 178.3640332 71.26068604 179.37304688 72.22802734 C188.86130305 81.37247479 197.6012044 90.66984009 205.375 101.3125 C206.23306152 102.46355017 207.09113451 103.61459177 207.94921875 104.765625 C213.98736829 112.95680614 219.34595521 121.47054105 224.375 130.3125 C224.73948242 130.94430176 225.10396484 131.57610352 225.47949219 132.22705078 C247.08534998 169.97532572 256.85198095 212.74189997 256.6875 255.9375 C256.68534485 256.95540619 256.6831897 257.97331238 256.68096924 259.02206421 C256.63129854 273.63113523 256.38040191 287.96325853 253.375 302.3125 C253.07698486 303.77478027 253.07698486 303.77478027 252.77294922 305.26660156 C242.65232806 353.6484774 220.7358123 397.63678269 186.375 433.3125 C185.74287598 433.97185547 185.11075195 434.63121094 184.45947266 435.31054688 C175.31502521 444.79880305 166.01765991 453.5387044 155.375 461.3125 C154.22394983 462.17056152 153.07290823 463.02863451 151.921875 463.88671875 C143.73224019 469.92427396 135.22961724 475.30707302 126.375 480.3125 C125.66778809 480.7146875 124.96057617 481.116875 124.23193359 481.53125 C101.09654164 494.5566741 75.92537591 503.30551461 49.9375 508.625 C49.21860596 508.77235596 48.49971191 508.91971191 47.7590332 509.0715332 C33.08339502 511.86090125 18.55831162 512.66142619 3.64770508 512.62817383 C0.70811513 512.6250221 -2.2304558 512.64854926 -5.16992188 512.67382812 C-18.54306192 512.71848737 -31.43916711 511.51301542 -44.625 509.3125 C-46.33055054 509.03031616 -46.33055054 509.03031616 -48.07055664 508.74243164 C-91.33802759 500.97044532 -132.38793216 480.98345309 -165.625 452.3125 C-166.37007813 451.67828125 -167.11515625 451.0440625 -167.8828125 450.390625 C-181.38779833 438.57948485 -194.05918743 425.82889772 -204.625 411.3125 C-205.48149066 410.16255169 -206.33826433 409.01281411 -207.1953125 407.86328125 C-213.23534209 399.67315742 -218.61867614 391.16870382 -223.625 382.3125 C-224.0271875 381.60528809 -224.429375 380.89807617 -224.84375 380.16943359 C-237.8691741 357.03404164 -246.61801461 331.86287591 -251.9375 305.875 C-252.08485596 305.15610596 -252.23221191 304.43721191 -252.3840332 303.6965332 C-255.35789088 288.05024391 -255.99800362 272.57681954 -255.9375 256.6875 C-255.93534485 255.66959381 -255.9331897 254.65168762 -255.93096924 253.60293579 C-255.88129854 238.99386477 -255.63040191 224.66174147 -252.625 210.3125 C-252.42632324 209.33764648 -252.22764648 208.36279297 -252.02294922 207.35839844 C-241.90232806 158.9765226 -219.9858123 114.98821731 -185.625 79.3125 C-184.99287598 78.65314453 -184.36075195 77.99378906 -183.70947266 77.31445312 C-174.56502521 67.82619695 -165.26765991 59.0862956 -154.625 51.3125 C-153.47394983 50.45443848 -152.32290823 49.59636549 -151.171875 48.73828125 C-142.98224019 42.70072604 -134.47961724 37.31792698 -125.625 32.3125 C-124.91778809 31.9103125 -124.21057617 31.508125 -123.48193359 31.09375 C-100.34654164 18.0683259 -75.17537591 9.31948539 -49.1875 4 C-48.46860596 3.85264404 -47.74971191 3.70528809 -47.0090332 3.5534668 C-31.36274391 0.57960912 -15.88931954 -0.06050362 0 0 Z " fill="#0F48A0" transform="translate(255.625,-0.3125)"/>
<path d="M0 0 C1.02498596 0.00081573 1.02498596 0.00081573 2.07067871 0.00164795 C11.80504179 0.03681341 21.35135784 0.61017957 31 2 C32.49321777 2.21003662 32.49321777 2.21003662 34.01660156 2.42431641 C44.34280421 4.11060446 53.52062789 7.30618837 63.75 10.375 C63.75 127.195 63.75 244.015 63.75 364.375 C45.26072961 370.152897 45.26072961 370.152897 36.875 371.625 C35.6065625 371.86476563 35.6065625 371.86476563 34.3125 372.109375 C3.9707073 377.67667641 -31.47464376 375.8851425 -60.25 364.375 C-60.25 247.555 -60.25 130.735 -60.25 10.375 C-53.82253317 8.23251106 -47.67267977 6.37076913 -41.125 4.8125 C-40.2896875 4.60431641 -39.454375 4.39613281 -38.59375 4.18164062 C-25.84253529 1.12785872 -13.09181589 -0.01791615 0 0 Z " fill="#FEFEFE" transform="translate(254.25,68.625)"/>
<path d="M0 0 C0 4.62 0 9.24 0 14 C1.546875 13.979375 3.09375 13.95875 4.6875 13.9375 C58.71510568 14.14318885 112.45788938 41.32119904 152 77 C152.66 77.99 153.32 78.98 154 80 C151.04105222 78.61340788 148.50785885 76.99231948 145.875 75.0625 C125.58384355 60.75501305 103.73772818 49.47818391 80.46337891 40.91650391 C78.42528057 40.15822629 76.40350896 39.35622578 74.38671875 38.54296875 C50.71491532 29.25701846 25.14571721 27.05506506 0 26 C0 31.94 0 37.88 0 44 C-1.54945313 44.09796875 -3.09890625 44.1959375 -4.6953125 44.296875 C-49.42518742 47.35083597 -92.18001844 60.18933 -128 88 C-129.00933594 88.77988281 -130.01867187 89.55976562 -131.05859375 90.36328125 C-175.00200423 125.45567855 -203.08639035 176.10457074 -210.17529297 231.91894531 C-212.34925689 251.73940784 -211.4493227 271.40045567 -208 291 C-207.83177734 292.02407959 -207.83177734 292.02407959 -207.66015625 293.06884766 C-198.82904189 346.64154911 -167.64731478 395.44704055 -123.9140625 427.23046875 C-86.86990143 453.65864257 -45.07905646 465.94402856 0 467 C0 473.27 0 479.54 0 486 C24.74396679 484.98481768 24.74396679 484.98481768 49.04150391 480.51464844 C50.90931466 480.02383006 52.78855734 479.57714619 54.66796875 479.1328125 C86.54703698 471.27603015 117.46619342 457.19345892 144.09985352 438.01269531 C144.83389404 437.48772461 145.56793457 436.96275391 146.32421875 436.421875 C147.2846106 435.71949707 147.2846106 435.71949707 148.2644043 435.00292969 C150 434 150 434 153 434 C125.43813966 460.80010038 88.55157929 480.0605548 52 491 C50.9493335 491.31493408 50.9493335 491.31493408 49.87744141 491.63623047 C33.71959354 496.35109127 16.80789523 498.56026317 0 498 C0 502.62 0 507.24 0 512 C-15.30294947 512.37906389 -29.92073343 511.68710342 -45 509 C-45.91185059 508.83902832 -46.82370117 508.67805664 -47.76318359 508.51220703 C-91.36461429 500.53941775 -132.44282799 480.94708129 -166 452 C-166.74507813 451.36578125 -167.49015625 450.7315625 -168.2578125 450.078125 C-181.76279833 438.26698485 -194.43418743 425.51639772 -205 411 C-205.85649066 409.85005169 -206.71326433 408.70031411 -207.5703125 407.55078125 C-213.61034209 399.36065742 -218.99367614 390.85620382 -224 382 C-224.4021875 381.29278809 -224.804375 380.58557617 -225.21875 379.85693359 C-238.2441741 356.72154164 -246.99301461 331.55037591 -252.3125 305.5625 C-252.45985596 304.84360596 -252.60721191 304.12471191 -252.7590332 303.3840332 C-255.73289088 287.73774391 -256.37300362 272.26431954 -256.3125 256.375 C-256.31034485 255.35709381 -256.3081897 254.33918762 -256.30596924 253.29043579 C-256.25629854 238.68136477 -256.00540191 224.34924147 -253 210 C-252.80132324 209.02514648 -252.60264648 208.05029297 -252.39794922 207.04589844 C-242.27732806 158.6640226 -220.3608123 114.67571731 -186 79 C-185.36787598 78.34064453 -184.73575195 77.68128906 -184.08447266 77.00195312 C-174.94002521 67.51369695 -165.64265991 58.7737956 -155 51 C-153.84894983 50.14193848 -152.69790823 49.28386549 -151.546875 48.42578125 C-143.35724019 42.38822604 -134.85461724 37.00542698 -126 32 C-125.29278809 31.5978125 -124.58557617 31.195625 -123.85693359 30.78125 C-97.9229405 16.18018945 -69.33516936 6.81800319 -40 2 C-39.29391602 1.88285645 -38.58783203 1.76571289 -37.86035156 1.64501953 C-25.27420854 -0.35179194 -12.7138485 -0.20162932 0 0 Z " fill="#2196F2" transform="translate(256,0)"/>
<path d="M0 0 C4.91736572 0.98347314 8.78463253 2.46816541 13.3125 4.5 C14.10430664 4.85529785 14.89611328 5.2105957 15.71191406 5.57666016 C58.65828859 25.19974433 95.08192786 61.61287059 112.203125 105.99609375 C124.2400746 138.73417312 128.3440149 171.36667266 123 206 C122.84015625 207.23105469 122.6803125 208.46210938 122.515625 209.73046875 C117.91768524 239.71027865 103.50674933 269.8766147 84 293 C82.97326172 294.30130859 82.97326172 294.30130859 81.92578125 295.62890625 C61.95165076 320.8386257 32.88219672 342.33341454 2 352 C1.34 352 0.68 352 0 352 C0 235.84 0 119.68 0 0 Z " fill="#CE1227" transform="translate(318,80)"/>
<path d="M0 0 C0 116.16 0 232.32 0 352 C-17.71484375 344.9140625 -17.71484375 344.9140625 -25.5625 340.75 C-26.45453125 340.27820313 -27.3465625 339.80640625 -28.265625 339.3203125 C-36.00418181 335.14394851 -43.11591186 330.45994107 -50 325 C-50.51900879 324.59378418 -51.03801758 324.18756836 -51.57275391 323.76904297 C-88.93259789 294.25488229 -115.53365605 251.58284906 -122 204 C-127.52266181 155.5342746 -118.5807726 106.83528273 -89 67 C-88.61118652 66.45472656 -88.22237305 65.90945312 -87.82177734 65.34765625 C-75.5117683 48.10248495 -59.64708337 32.70469815 -42 21 C-41.40477539 20.60312988 -40.80955078 20.20625977 -40.19628906 19.79736328 C-9.99972576 0 -9.99972576 0 0 0 Z " fill="#002654" transform="translate(193,80)"/>
<path d="M0 0 C63.74425014 -1.59213206 127.32385883 23.01544929 173.734375 66.86328125 C174.8244799 67.90722425 175.91288043 68.95294855 177 70 C177.9890332 70.94818604 177.9890332 70.94818604 178.99804688 71.91552734 C188.48630305 81.05997479 197.2262044 90.35734009 205 101 C205.85806152 102.15105017 206.71613451 103.30209177 207.57421875 104.453125 C213.61236829 112.64430614 218.97095521 121.15804105 224 130 C224.36448242 130.63180176 224.72896484 131.26360352 225.10449219 131.91455078 C246.71034998 169.66282572 256.47698095 212.42939997 256.3125 255.625 C256.31034485 256.64290619 256.3081897 257.66081238 256.30596924 258.70956421 C256.25629854 273.31863523 256.00540191 287.65075853 253 302 C252.70198486 303.46228027 252.70198486 303.46228027 252.39794922 304.95410156 C242.27732806 353.3359774 220.3608123 397.32428269 186 433 C185.36787598 433.65935547 184.73575195 434.31871094 184.08447266 434.99804688 C174.94002521 444.48630305 165.64265991 453.2262044 155 461 C153.84894983 461.85806152 152.69790823 462.71613451 151.546875 463.57421875 C143.35724019 469.61177396 134.85461724 474.99457302 126 480 C125.29278809 480.4021875 124.58557617 480.804375 123.85693359 481.21875 C97.9229405 495.81981055 69.33516936 505.18199681 40 510 C39.29391602 510.11714355 38.58783203 510.23428711 37.86035156 510.35498047 C25.27420854 512.35179194 12.7138485 512.20162932 0 512 C0 507.38 0 502.76 0 498 C1.50046875 497.90203125 3.0009375 497.8040625 4.546875 497.703125 C17.96591716 496.75431498 30.92429852 495.18540559 44 492 C44.83031738 491.79922852 45.66063477 491.59845703 46.51611328 491.39160156 C85.48168971 481.70802542 122.237159 460.82248891 152 434 C146.63484694 437.36855764 141.32123895 440.77199178 136.13305664 444.40893555 C118.98123733 456.27301165 99.98596475 464.98598804 80.44726562 472.10693359 C78.29547337 472.89217462 76.15434247 473.6995421 74.015625 474.51953125 C49.92365174 483.54039454 25.56079755 486.22731935 0 486 C0 480.06 0 474.12 0 468 C3.15175781 467.74476563 3.15175781 467.74476563 6.3671875 467.484375 C21.1645441 466.24575919 35.61683768 464.86214544 50 461 C51.21171875 460.71511719 52.4234375 460.43023437 53.671875 460.13671875 C80.5571136 453.58849004 106.17694845 440.94343935 128 424 C129.00933594 423.22011719 130.01867187 422.44023437 131.05859375 421.63671875 C174.01045533 387.33615411 203.07455715 337.04912814 209.74975586 282.23657227 C211.8029971 263.88560347 212.07923695 245.24447896 209 227 C208.79088388 225.6407452 208.58257543 224.28136594 208.375 222.921875 C199.45489614 166.66714537 168.69842206 117.55610528 122.81201172 84.08642578 C100.05530377 67.78285782 74.58099895 57.13741261 47.5625 50.1875 C46.80686768 49.99236816 46.05123535 49.79723633 45.27270508 49.59619141 C32.14286934 46.39461949 19.06757442 45.6414094 5.625 45.375 C4.00258609 45.33669571 2.3801898 45.29763746 0.7578125 45.2578125 C-3.16131036 45.16321386 -7.08052718 45.07870941 -11 45 C-11 44.67 -11 44.34 -11 44 C-7.37 44 -3.74 44 0 44 C0 38.06 0 32.12 0 26 C54.34060679 25.23999151 109.598537 44.73619152 152 79 C112.01729136 38.30075537 55.71023178 18.23686229 0 14 C0 9.38 0 4.76 0 0 Z " fill="#15629E" transform="translate(256,0)"/>
<path d="M0 0 C2.73510083 1.30915977 5.230871 2.7544455 7.73046875 4.46875 C8.44162842 4.952229 9.15278809 5.43570801 9.88549805 5.93383789 C11.02498901 6.70908813 11.02498901 6.70908813 12.1875 7.5 C65.58301653 43.31740931 129.37026319 62.66759511 193.56884766 50.51367188 C230.94839827 43.01275871 267.09628303 28.34053739 298.09985352 6.01269531 C298.83389404 5.48772461 299.56793457 4.96275391 300.32421875 4.421875 C301.2846106 3.71949707 301.2846106 3.71949707 302.2644043 3.00292969 C304 2 304 2 307 2 C279.43813966 28.80010038 242.55157929 48.0605548 206 59 C205.29955566 59.20995605 204.59911133 59.41991211 203.87744141 59.63623047 C174.75270724 68.13482933 143.51756617 68.57256377 114 62 C113.15405273 61.81276367 112.30810547 61.62552734 111.43652344 61.43261719 C82.94666196 54.92546539 56.07573801 42.46098089 32 26 C31.3390332 25.54850586 30.67806641 25.09701172 29.99707031 24.63183594 C19.5577474 17.44124302 9.14232434 9.81034049 0 1 C0 0.67 0 0.34 0 0 Z " fill="#F7FAFD" transform="translate(102,432)"/>
<path d="M0 0 C2.0390625 1.83984375 2.0390625 1.83984375 4.0390625 4.83984375 C1.08011472 3.45325163 -1.45307865 1.83216323 -4.0859375 -0.09765625 C-24.37709395 -14.4051432 -46.22320932 -25.68197234 -69.49755859 -34.24365234 C-71.53565693 -35.00192996 -73.55742854 -35.80393047 -75.57421875 -36.6171875 C-92.74250347 -43.35194427 -111.65576501 -46.53346533 -129.9609375 -48.16015625 C-131.37375021 -48.33551668 -132.78650741 -48.51132473 -134.19921875 -48.6875 C-176.27824258 -53.37832033 -219.40378518 -41.41530109 -256.9609375 -23.16015625 C-258.135354 -22.59240479 -258.135354 -22.59240479 -259.33349609 -22.01318359 C-274.76002004 -14.46444139 -289.96675628 -5.45852263 -302.9609375 5.83984375 C-303.6209375 5.50984375 -304.2809375 5.17984375 -304.9609375 4.83984375 C-275.91738003 -23.47096342 -237.34849473 -45.43375168 -197.9609375 -55.16015625 C-196.93154053 -55.41490723 -196.93154053 -55.41490723 -195.88134766 -55.67480469 C-123.28007732 -73.38868181 -56.00727647 -45.43188439 0 0 Z " fill="#F8FAFD" transform="translate(405.9609375,75.16015625)"/>
<path d="M0 0 C0.66 0.33 1.32 0.66 2 1 C0.66493404 5.00519788 -1.94623143 6.32197597 -5.3125 8.5625 C-5.89451172 8.96146484 -6.47652344 9.36042969 -7.07617188 9.77148438 C-9.96217171 11.72925776 -12.82493735 13.54966274 -16 15 C-11.52562126 8.98273203 -5.86333621 4.6208429 0 0 Z " fill="#D6EBFC" transform="translate(117,66)"/>
<path d="M0 0 C3.34708051 1.54841575 6.24667512 3.49105864 9.25 5.625 C10.14203125 6.25664062 11.0340625 6.88828125 11.953125 7.5390625 C12.96632813 8.26222656 12.96632813 8.26222656 14 9 C13.67 9.99 13.34 10.98 13 12 C11.20425007 10.56760415 9.41353093 9.1288996 7.625 7.6875 C6.62726563 6.88699219 5.62953125 6.08648437 4.6015625 5.26171875 C2 3 2 3 0 0 Z " fill="#D3EAFC" transform="translate(102,432)"/>
<path d="M0 0 C0.66 0.33 1.32 0.66 2 1 C0.40423801 2.50893816 -1.20189911 4.00691076 -2.8125 5.5 C-3.70582031 6.3353125 -4.59914063 7.170625 -5.51953125 8.03125 C-8 10 -8 10 -11 10 C-9.73459948 6.20379845 -8.21781569 5.51321812 -4.9375 3.3125 C-4.01839844 2.68988281 -3.09929687 2.06726563 -2.15234375 1.42578125 C-1.44207031 0.95527344 -0.73179687 0.48476563 0 0 Z " fill="#D5E3ED" transform="translate(407,433)"/>
<path d="M0 0 C4.94515667 2.62711448 8.87775489 6.26645294 13 10 C9.03990775 10 7.85479241 8.59219817 4.8125 6.125 C3.91144531 5.40570313 3.01039063 4.68640625 2.08203125 3.9453125 C1.39496094 3.30335937 0.70789063 2.66140625 0 2 C0 1.34 0 0.68 0 0 Z " fill="#D7E4EE" transform="translate(397,69)"/>
<path d="M0 0 C0.66 0.33 1.32 0.66 2 1 C0.19587357 4.26460973 -0.83394693 5.88929795 -4 8 C-4.99 7.67 -5.98 7.34 -7 7 C-4.66666667 4.66666667 -2.33333333 2.33333333 0 0 Z " fill="#ECF6FE" transform="translate(125,60)"/>
</svg>
